<svg xmlns="http://www.w3.org/2000/svg" xmlns:xlink="http://www.w3.org/1999/xlink" viewBox="0 0 1440 1200"><defs/><style>.a{fill:#4d4d4d}.b{fill:#ccc}.c{fill:#0063a2}</style><defs><linearGradient id="B" x1="1072.72" y1="557.35" x2="1482.89" y2="557.35" gradientUnits="userSpaceOnUse"><stop offset="0" stop-color="#b3d3de"/><stop offset="1" stop-color="#064d80"/></linearGradient><linearGradient id="C" x1="1055.66" y1="81.82" x2="1488.8" y2="81.82" xlink:href="#B"/><linearGradient id="D" x1="791.95" y1="315.38" x2="862.69" y2="315.38" xlink:href="#B"/><linearGradient id="E" x1="1375.63" y1="270.59" x2="1450.94" y2="270.59" xlink:href="#B"/><linearGradient id="F" x1="1063.7" y1="17.5" x2="1131.99" y2="17.5" xlink:href="#B"/><linearGradient id="G" x1="1152.88" y1="82.25" x2="1302.24" y2="82.25" xlink:href="#B"/><linearGradient id="H" x1="895.68" y1="495.98" x2="1382.22" y2="495.98" xlink:href="#B"/><linearGradient id="I" x1="935.01" y1="173.49" x2="1064.12" y2="173.49" xlink:href="#B"/><linearGradient id="J" x1="1085.78" y1="134.58" x2="1193.17" y2="134.58" xlink:href="#B"/><linearGradient id="K" x1="1118.45" y1="230.2" x2="1315.35" y2="230.2" xlink:href="#B"/><linearGradient id="L" x1="862.69" y1="-15.75" x2="1055.66" y2="-15.75" xlink:href="#B"/><linearGradient id="M" x1="1281.61" y1="193.85" x2="1364.95" y2="193.85" xlink:href="#B"/><linearGradient id="N" x1="985.31" y1="355.09" x2="1376.65" y2="355.09" xlink:href="#B"/><linearGradient id="O" x1="862.69" y1="280.62" x2="926.82" y2="280.62" xlink:href="#B"/><linearGradient id="P" x1="1426.75" y1="436.54" x2="1441.75" y2="436.54" xlink:href="#B"/><linearGradient id="Q" x1="862.69" y1="653.35" x2="1072.72" y2="653.35" xlink:href="#B"/><radialGradient id="A" cx="-8058.86" cy="2350.82" fx="-8384.537" fy="2250.086" r="340.9" gradientTransform="matrix(1.79 0 0 3.18 15487.47 -7053.6)" gradientUnits="userSpaceOnUse"><stop offset="0" stop-color="#fff"/><stop offset="1" stop-color="#fff" stop-opacity="0"/></radialGradient><radialGradient id="R" cx="-10755.17" cy="2336.38" fx="-11080.85" fy="2235.643" gradientTransform="matrix(1.01 0 0 3.18 12064.11 -7193.9)" xlink:href="#A"/></defs><g style="isolation:isolate"><g style="mix-blend-mode:multiply"><g class="b"><path d="M1464.43 500.34l-.54-.9-.71.45-.73.48-.55-.91-211.21 76.81 51.2-333.21 160.01 256.4 1.01-.36.27.79.71-.45-162.96-261.16-52.36 340.58 215.86-78.52z"/><path d="M1463.11 498.64l-.58.71.65.54.63.52-.61.75 119.62 122.98L1378 604.96l85.2-103.8-.63-.69.61-.58-.65-.54-87.85 107.04 212.54 19.88-124.11-127.63zM1349.2 760.46l.53-.64-1.12-.92-.22 1.42.81.14z"/><path d="M1349.77 762.01l.23-1.4-.8-.15-.81-.14.22-1.42-28.24-23.17 53.93-123.27-25.69 146.44 1.12.92-.53.64.8.15 27.17-154.79-1.59-.45-57.26 130.83 31.45 25.81z"/><path d="M1377.52 605.08l-.99-.24-.16.83-.22.84-.97-.22-55.83 127.57-68.27-155.11 124.1 27.54.4-.92.79.3.16-.83-128.35-28.46 71.17 161.69 58.17-132.99z"/><path d="M1376.15 606.51l.22-.84-.79-.3-.4.92.97.22z"/><path d="M1465.77 498.03l-2.86 1.07.54 1.58-2.88 1.05-84.52 102.99-123.4-27.34 207.92-75.65 1.96-2.38.65.54-.27-.79-216.29 78.68 130.02 28.85 89.13-108.6z"/><path d="M1587.28 624.56l-2.16-.18-.1.82-.08.84-2.18-.18-190.65 142.39-14.82-161.65 205.47 19.26 1.77-1.34.49.68.1-.82-209.69-19.65 15.31 166.67 196.54-146.84z"/><path d="M1392.36 770.9l-.12-1.17-.83.11-.82.07-.11-1.17-40.33-8.92 25.91-147.73 14.42 156.65 1.14.25-.21.85.83-.11-15.05-164.13-1.65-.04-27.3 155.54 44.12 9.8z"/><path d="M1391.41 769.84l.21-.85-1.14-.25.11 1.17.82-.07zm75.86 212.15l-1.16.13.08.8.06.85-1.16.13-19.11 82.14-60.09-73.78 79.2-8.36.27-1.14.83.16-.08-.8-83.51 8.74 64.25 78.91 20.42-87.78z"/><path d="M1384.61 992.29l-.41-.74-.63.56.42.52.62-.34z"/><path d="M1467.33 983.69l-.36-1.03-.78.26-.81.31-.35-1.03-79.92 8.39 7-216.18 72.92 207.79 1.08-.08.08.8.78-.26-74.75-213.12-1.62.26-7.25 222.7 83.98-8.81z"/><path d="M1391.23 770.66l.18-.82-.81-.04-.03.72.66.14z"/><path d="M1385.07 991.59l7.24-222.43-.69-.17-.21.85-.18.82-.66-.14-6.89 211.79-33.47-220.73 40.36 8.94.03-.72.81.04.21-.85-43.44-9.64 35.22 232.34 1.67-.1z"/><path d="M1384.2 991.55l-.35-.74-.76.4.41.73.7-.39z"/><path d="M1385.06 991.41l-35.18-231.86-.75.06.07.85.06.85-.76.06 34.15 225.32-114.06-216.93 79.91-8.39-.14-.79.84-.12-.07-.85-83.23 8.75 117.6 223.58 1.56-.53z"/><path d="M1349.26 761.31l-.06-.85-.84.12.14.79.76-.06zm-82.17 8.59l.15-.84-.86-.03-.02.72.73.15z"/><path d="M1351.3 761.11l-31.89-26.18-.53.31.47.72.46.72-.51.32 27.79 22.81-76.38 8.06L1319.3 737l-.48-.39.53-.65-.47-.72-52.09 33.11.53 1.57 83.98-8.81z"/><path d="M1319.81 736.68l-.46-.72-.53.65.48.39.51-.32z"/><path d="M1319.35 735.96l-.47-.72-.62.4.32.66.77-.34z"/><path d="M1320.43 736.28l-.31-.65-.77.33-.77.34-.32-.66-50.28 31.97-17.05-184.93 67.33 152.96.62-.4.47.72.77-.33-69.72-158.4-1.62.44 17.74 192.84 53.91-34.23z"/><path d="M1249.75 578.4l-.12-.84-.85.11.08.86.89-.13zm17.49 190.66l.17-.83-6.37-1.25 5.82 2.84.38-.76z"/><path d="M1301.34 241.53l.07-.85-.83-.12-.13.87.89.1zm-51.71 336.03l-.11-.82-1.38.23.78 1.1.71-.51z"/><path d="M1301.41 240.68l.1-.84-2.3-.17 1.61 1.61.59-.6z"/></g><g opacity=".7" class="b"><path d="M1125.02 753.61l1.85-1.16-2.17-.36-.11.82.43.7z"/><path d="M1124.59 752.91l.11-.82 2.17.36 101.62-64.56 48.52 89.16-150.14-24.6-1.85 1.16-.43-.7-.18.82 155.74 25.56-51.02-93.77-106.89 67.85 2.17.36.18-.82z"/><path d="M1279.33 777.76l-.34-.62-.68.24.28.8.74-.42z"/><path d="M1278.85 778.96l-.26-.78-.28-.8.68-.24-48.8-89.67 389.66-27.38-340.86 117.05.34.62-.74.42.26.78 347.63-119.35-.3-1.66-398.73 28.01 50.72 93.24.68-.24z"/><path d="M1278.85 778.96l4.45-1.52-4.67-.14-.04.88.26.78zm-49.98-91.38l-.06-.85-.07-.85 1.34-.09 110.52-285.5 283.6 257.79-394.12 27.71-.49 1.25-.78-.31.06.85 399.39-28.1-288.31-262.12-112.39 290.28 1.31-.06z"/><path d="M1229.59 687.04l.49-1.25-1.34.09.07.85.78.31zm111.52-288.16l.12-1.55-1.35.72.39.77.84.06z"/><path d="M1340.67 399.55l-.4-.73-.39-.77 1.35-.72 19.3-232.84 110.09 164.95-129.39 67.89-.12 1.55-.84-.06.4.73 132.42-69.5-113.83-170.58-19.95 240.78 1.36-.7zm-62.11 379.46l6.13.19-5.83-1.82-.27.8-.03.83z"/><path d="M1360.73 162.09l.2-1.31-1.26.38.23.82.83.11z"/><path d="M1361.25 162.46l-.68-.96-.67.48.23.81 1.12-.33zm-313.59 197.43l-.48-.4-.52.32.47.73.53-.65zm77.67 392.66l-.39-.89-.82.52.47.73.74-.36zm216.8-353.23l-1.27-1.16-.59.66.16.82 1.7-.32z"/><path d="M1340.27 398.82l.59-.66 1.27 1.16 173.93-31.9 108.14 288.39-282.07-256.49-1.7.32-.16-.82-.57.61 285.95 260.02 1.37-.99-109.88-292.94-178.71 32.76 1.27 1.15.57-.61z"/><path d="M1340.27 398.82l-.15-.86 5.54-1.03 126.08-66.16 42.92 35.22-169 30.94-4.99 2.62-.4-.73.16.82 178.13-32.67-46.58-38.23-132.1 69.31.55 1.59-.16-.82z"/><path d="M1340.67 399.55l4.99-2.62-5.54 1.03.15.86.4.73zm-293.1-38.31l2.15-1.36-2.55-.17-.04.83.44.7z"/><path d="M1047.13 360.54l.04-.83 2.55.17L1358.27 164l-75.75 212.3-232.8-16.42-2.15 1.36-.44-.7-.07.84 236.62 16.72 77.83-218.16-317.02 201.28 2.57.16.07-.84z"/><path d="M1283.89 377.47l.28-.79-.75-.28-.3.78.77.29z"/><path d="M1282.79 377.99l.33-.81.3-.78.75.28 74.33-208.34-18.99 229.28-55.34-20.94-.28.79-.77-.29-.33.81 58.24 22.02 19.71-237.96-1.64-.33-77.07 215.99.76.28z"/><path d="M1283.12 377.18l.8.15-.15 1.01 55.42 20.96-108.06 279.09 52.64-300.05-.98-.35.33-.81-.85-.13-54.28 309.52 1.6.47 111.78-288.74-58.9-22.28-.2 1.03.85.13z"/><path d="M1283.77 378.34l.15-1.01-.8-.15-.33.81.98.35z"/></g><g><g class="a"><path d="M1277.65 782.86a5.41 5.41 0 10-.75-7.62 5.41 5.41 0 00.75 7.62zM1296 247.08a8.62 8.62 0 10-1.2-12.13 8.61 8.61 0 001.2 12.13zm-174 510.28a5.41 5.41 0 10-.75-7.62 5.41 5.41 0 00.75 7.62z"/><circle cx="1341.77" cy="678.7" r="9.91" transform="rotate(-38.52 1341.864 678.709)"/></g><path d="M1351.7 171.13a11.42 11.42 0 10-1.59-16.07 11.42 11.42 0 001.59 16.07z" class="c"/><g class="a"><path d="M1372.38 1004.29a18.58 18.58 0 10-2.58-26.15 18.58 18.58 0 002.58 26.15zm-55.33-265.17a3.31 3.31 0 10-.46-4.66 3.3 3.3 0 00.46 4.66zm-73.48-153.85a8.2 8.2 0 10-1.14-11.54 8.2 8.2 0 001.14 11.54zm147.57-193.03a3.32 3.32 0 10-.46-4.67 3.31 3.31 0 00.46 4.67zm-9.89-14.57a4.71 4.71 0 10-.66-6.62 4.7 4.7 0 00.66 6.62zm9.52 395.96a2 2 0 10-.28-2.83 2 2 0 00.28 2.83zm-151.83-534.82a3.78 3.78 0 10-.52-5.32 3.78 3.78 0 00.52 5.32zM1294.62 686a2 2 0 10-.28-2.83 2 2 0 00.28 2.83zm-37.99 2.93a3.52 3.52 0 10-.49-4.95 3.52 3.52 0 00.49 4.95zm-4.49-65.43a4.79 4.79 0 10-.66-6.74 4.79 4.79 0 00.66 6.74zM1372 613.36a7.27 7.27 0 10-1-10.24 7.28 7.28 0 001 10.24zm-95.73-230.25a7.27 7.27 0 10-1-10.23 7.26 7.26 0 001 10.23zm-51.99 308.2a5.74 5.74 0 10-.79-8.08 5.73 5.73 0 00.79 8.08zM1335 406.66a8.49 8.49 0 10-1.18-12 8.5 8.5 0 001.18 12z"/><circle cx="1047.77" cy="359.49" r="8.49" transform="rotate(-88.62 1047.71 359.522)"/></g></g><g><g class="b"><path d="M568.68 2.11l10.95 20.12-122.8-20.12h-10.31l136.24 22.36L570.6 2.11h-1.92z"/><path d="M580.93 22.56l.28.8.73-.42-.33-.62-.68.24z"/><path d="M640.46 2.11l-58.85 20.21.33.62-.73.42-.28-.8.68-.24-11-20.21h-1.94l12.12 22.27.67-.24 64.16-22.03h-5.16z"/><path d="M581.21 23.36l.25.78 4.45-1.53-4.66-.13-.04.88z"/><path d="M978.23 2.11l16.43 32.01-408.75-11.51-4.45 1.53-.25-.78.04-.88 4.66.13 59.72-20.5h-5.15l-59.55 20.45.24 1.62 416.29 11.73-17.33-33.8h-1.9zm3.73 780.13l.27.79 1.01-.36-.55-.91-.73.48zM362.27 197.52l.53.66.8.26.86-2.66-2.19 1.74z"/><path d="M446.41 2.11L579.2 23.88l-214.74 171.9-.86 2.66-.8-.26-.53-.66 2.19-1.74L426.77 2.11H425l-63.84 198.48 2.16-1.75 219.89-176L456.89 2.11h-10.48zm535.62 781.38l.58-.71-.65-.54-.64-.52.62-.74-119.62-122.99 204.81 19.18-85.19 103.81.63.68-.61.58.65.54 87.85-107.04-212.55-19.88 124.12 127.63z"/><path d="M981.32 781.72l.64.52.61-.58-.63-.68-.62.74zm114.62-260.05l-.53.64 1.11.92.22-1.42-.8-.14z"/><path d="M1095.37 520.12l-.23 1.4.8.15.8.14-.22 1.42 28.25 23.18-53.93 123.26 25.68-146.44-1.11-.92.53-.64-.8-.15-27.17 154.8 1.58.44 57.27-130.83-31.45-25.81z"/><path d="M1067.61 677.05l.99.24.17-.83.22-.84.96.22 55.84-127.57 68.27 155.11-124.11-27.54-.4.92-.78-.3-.17.83 128.36 28.46-71.17-161.69-58.18 132.99z"/><path d="M1068.99 675.62l-.22.84.78.3.4-.92-.96-.22zm-87.03 106.62l.65.54 1.95-2.38-2.88 1.05.28.79z"/><path d="M979.37 784.1l2.86-1.07-.27-.79-.28-.79 2.88-1.05 84.53-102.99 123.39 27.34-207.92 75.65-1.95 2.38-.65-.54.27.79 216.28-78.68-130.01-28.85-89.13 108.6zM859.62 656.24l.5.69.81.27.84-2.57-2.15 1.61z"/><path d="M860.12 656.93l.49.68 1.77-1.34-2.18-.18-.08.84z"/><path d="M857.86 657.57l2.16.19.1-.83.08-.84 2.18.18 190.65-142.39 14.82 161.65-205.47-19.26-1.77 1.34-.49-.68-.1.83 209.69 19.64-15.31-166.67-196.54 146.84z"/><path d="M1052.78 511.23l.11 1.17.84-.11.82-.07.11 1.17 40.33 8.92-25.92 147.74-14.41-156.66-1.14-.25.21-.85-.84.11 15.06 164.13 1.65.04 27.29-155.54-44.11-9.8z"/><path d="M1053.73 512.29l-.21.85 1.14.25-.11-1.17-.82.07zM581.25 22.48l-.31 1.68.27-.8.26-.81 5.83 1.83 407.76 11.43-16.94 110.38L587.3 24.38l-6.13-.2.04-.82-.27.8 398.54 124.22 17.54-114.2-415.77-11.7z"/><path d="M581.21 23.36l-.04.82 6.13.2-5.83-1.83-.26.81zm414.24 9.92L977.84 147.9l.67.2.27-.8.28-.8.69.23 16.88-109.98 192.4 182.67-209.28-72.69-.12.7-.85-.13-.27.8 213.71 74.22.85-1.42L995.45 33.28z"/><path d="M979.06 146.5l-.28.8.85.13.12-.7-.69-.23z"/><path d="M979.6 147.06l-1.66.23.84.01.87-.03.01 5.93 18.19 61.07-18.06 77.6-.13-138.67-1.7-5.66.82-.24-.84-.01.17 151.9 1.67.18 19.83-85.19-20.01-67.12z"/><path d="M978.78 147.3l-.82.24 1.7 5.66-.01-5.93-.87.03z"/><path d="M977.49 145.95l20.61 69.1.59.03.01-.84.09-.84.58.02-19.31-64.79 206.77 71.83-187.46-7.04.19.55-.86.27-.01.84 193.75 7.3.34-1.65-215.29-74.78z"/><path d="M998.79 213.4l-.09.84.86-.27-.19-.55-.58-.02zm-19.91 84.96l.07.85.83.16.27-1.14-1.17.13z"/><path d="M977.87 300.14l1.16-.13-.08-.8-.07-.85 1.17-.13 19.11-82.14 60.08 73.78-79.19 8.36-.27 1.14-.83-.16.08.8 83.51-8.74-64.25-78.91-20.42 87.78z"/><path d="M1060.53 289.85l.41.73.63-.56-.42-.52-.62.35z"/><path d="M1060.68 291.62l.61-.3-.35-.74-.41-.73.62-.35-60.57-74.35 188.71 7.1-128.14 67.25.42.52-.63.56.35.74 134.41-70.53-198.82-7.48 63.8 78.31zm-81.73 7.59l.08.8 1.08-.08-.35-1.03-.81.31z"/><path d="M977.81 298.44l.36 1.04.78-.27.81-.31.35 1.03 79.92-8.39-7.01 216.19-72.91-207.8-1.08.08-.08-.8-.78.27 74.75 213.11 1.62-.26 7.25-222.7-83.98 8.81z"/><path d="M1053.91 511.47l-.18.82.81.04.03-.71-.66-.15z"/><path d="M1060.06 290.55l-7.23 222.42.69.17.21-.85.18-.82.66.15 6.88-211.8 33.48 220.73-40.36-8.93-.03.71-.81-.04-.21.85 43.43 9.64-35.21-232.34-1.68.11zm132.15-69.83l.27.79.74.44 1.26-2.11-2.27.88zM1192.63 220.67h.01z"/><path d="M1192.63 220.67h-.14l-.15 1.69.14-.85.15-.84zM1032.27 2.11l-35.95 31.55.48.96-.76.4-.52-.65.8-.71-16.17-31.55h-1.92l17.56 34.24.81-.7 38.2-33.54h-2.53z"/><path d="M995.52 34.37l.52.65.76-.4-.48-.96-.8.71z"/><path d="M1102.88 2.11l87.36 216.08L997.3 35.03l-.7.62-.56-.63.59-.65.67.66 37.51-32.92h-2.56L994.8 34.97l.67.66 196.45 186.5 1.36-.93-88.56-219.09h-1.84z"/><path d="M996.04 35.02l.56.63.7-.62-.66-.66-.6.65zM362.8 198.18l.52.66.88-.7-.91-.64-.49.68z"/><path d="M361.4 198.23l.92.64.48-.69.49-.68.91.64L580.5 25l32.38 352.19L364.2 198.14l-.88.7-.52-.66-.48.69 252.6 181.87L581.89 21.7 361.4 198.23z"/><path d="M613.15 380.42l1.17-.74-.43-.7-.46-.71 1.18-.75-32.46-352.99L976.8 147.55 614.61 377.52l.12 1.36-.84.1.43.7L980.8 147.02 580.24 22.17l32.91 358.25z"/><path d="M613.43 378.27l.46.71.84-.1-.12-1.36-1.18.75z"/><path d="M613.43 378.27l.62 1.53-.16-.82-.17-.82 4.59-1.01 359.63-228.32.17 149.68-359.8 78.64-3.99 2.53-.43-.7.16.82 365.76-79.95-.18-154.07-366.2 232.49z"/><path d="M613.89 378.98l.43.7 3.99-2.53-4.59 1.01.17.82z"/><path d="M613.89 378.98l.16.82 1.42-.32-.95-1.06-.63.56zM424.99 2.11l-62.31 193.7L277.4 2.11h-1.83l87.35 198.45L426.76 2.11h-1.77zm634.77 288.13l.4.73.78-.39.7-.39.41.73 129.54-67.98-14.4 287-115.14-219.02-.76.4-.35-.74-.78.39 118.43 225.23 14.82-296.09-133.65 70.13z"/><path d="M1060.94 290.58l.35.74.76-.4-.41-.73-.7.39z"/><path d="M1060.07 290.73l35.19 231.86.75-.07-.07-.85-.06-.85.76-.06-34.15-225.32 114.06 216.93-79.91 8.39.13.79-.83.12.07.85 83.22-8.75-117.59-223.58-1.57.54z"/><path d="M1095.88 520.82l.06.85.83-.12-.13-.79-.76.06zm82.17-8.59l-.15.84.85.03.03-.72-.73-.15z"/><path d="M1093.84 521.02l31.89 26.18.53-.31-.47-.72-.46-.72.51-.32-27.79-22.81 76.38-8.06-48.59 30.87.48.39-.53.65.47.72 52.09-33.11-.53-1.57-83.98 8.81z"/><path d="M1125.33 545.45l.46.72.53-.65-.48-.39-.51.32z"/><path d="M1125.79 546.17l.47.72.61-.4-.31-.66-.77.34z"/><path d="M1124.71 545.85l.31.65.77-.33.77-.34.31.66 50.29-31.97 17.05 184.93-67.34-152.96-.61.4-.47-.72-.77.33 69.72 158.4 1.62-.44-17.74-192.84-53.91 34.23z"/><path d="M1195.39 703.73l.12.84.85-.11-.08-.86-.89.13zm-17.49-190.66l-.17.84 6.37 1.24-5.82-2.84-.38.76z"/><path d="M1195.51 704.57l.11.82 1.38-.23-.79-1.1-.7.51z"/></g><g opacity=".7" class="b"><path d="M1320.12 528.52l-1.85 1.16 2.17.36.11-.82-.43-.7z"/><path d="M1320.55 529.22l-.11.82-2.17-.36-101.63 64.56-48.51-89.16 150.14 24.6 1.85-1.16.43.7.17-.82-155.73-25.56 51.02 93.77 106.89-67.85-2.18-.36-.17.82z"/><path d="M1165.81 504.37l.33.62.68-.24-.27-.8-.74.42z"/><path d="M1166.29 503.17l.26.78.27.8-.68.24 48.81 89.67-389.66 27.38 340.85-117.05-.33-.62.74-.42-.26-.78-347.63 119.35.29 1.66 398.74-28.01-50.73-93.24-.67.24z"/><path d="M1166.29 503.17l-4.45 1.52 4.66.14.05-.88-.26-.78zm49.25 91.93l-.49 1.24 1.34-.09-.06-.85-.79-.3zM651.01 5.5l.8.14.53-.64-1.11-.92-.22 1.42zm191.97-3.39l-74.21 223.41-73.74-210.19 17.69-13.22h-2.81l-16.87 12.61 75.78 216.01L844.76 2.11h-1.78z"/><path d="M693.09 13.91l.12 1.18.81-.07.21-.85-1.14-.26zm473.49 489.22l-6.13-.2 5.83 1.82.27-.8.03-.82zM768.12 379.88l-.12.7.69.23.28-.8-.85-.13z"/><path d="M767.97 227.94l-19.82 85.19 20.01 67.12 1.65-.23-.84-.01-.87.03-.01-5.93-18.18-61.07 18.06-77.6.12 138.67 1.7 5.66-.82.24.84.01-.16-151.9-1.68-.18z"/><path d="M768.1 380.04l.87-.03.82-.24-1.7-5.66.01 5.93z"/><path d="M749.06 312.23l-.01.84-.09.84-.58-.02 19.31 64.79-206.77-71.83 187.46 7.04-.18-.55.85-.27.01-.84-193.74-7.3-.35 1.65 215.29 74.78-20.61-69.1-.59-.03z"/><path d="M748.2 313.34l.18.55.58.02.09-.84-.85.27zm19.77-85.4l-.26 1.14 1.16-.13-.07-.85-.83-.16z"/><path d="M768.72 227.3l.08.8.07.85-1.16.13-19.12 82.14-60.08-73.78 79.2-8.36.26-1.14.83.16-.08-.8-83.51 8.74 64.25 78.91 20.42-87.78-1.16.13z"/><path d="M686.18 237.29l.43.52.62-.35-.41-.73-.64.56z"/><path d="M686.46 235.99l.36.74.41.73-.62.35 60.56 74.35-188.71-7.1 128.15-67.25-.43-.52.64-.56-.36-.74-134.41 70.53L750.87 314l-63.8-78.31-.61.3zm81.18-8.61l.35 1.03.81-.31-.08-.8-1.08.08z"/><path d="M768.8 228.1l-.81.31-.35-1.03-79.92 8.39 7.01-216.19 72.91 207.8 1.08-.08.08.8.78-.26-74.74-213.12-1.63.26-7.24 222.7 83.97-8.81-.36-1.03-.78.26z"/><path d="M693.21 14.98l-.03.71.67.15.17-.82-.81-.04z"/><path d="M694.23 14.17l-.21.85-.17.82-.67-.15-6.88 211.8L652.83 6.76l40.35 8.93.03-.71.81.04.21-.85-43.43-9.64 35.21 232.34 1.68-.11 7.23-222.42-.69-.17zm-139.7 291.19l-1.25 2.11 2.26-.88-.27-.79-.74-.44zM555.11 306.64h.01z"/><path d="M555.27 305.8l-.15.84h.14l.15-1.69-.14.85zM818.5 622.62l-1.7.94 1.82.58.27-.8-.39-.72z"/><path d="M1319.81 529.58l.39.89.82-.52-.47-.73-.74.36zm-501.7 94.09l.34.89.85-.49-.41-.73-.78.33zm314.91-475.24l.12 1.35 1.18-.74-.45-.71-.85.1z"/><path d="M1070.62 2.11h-2.88l84.95 61.62.12-.52.84.18-.5.67-.46-.33-19.27 82.81L1005.46 2.11h-2.26l131.11 148 20.28-87.09-.45-.31-83.52-60.6z"/><path d="M1152.81 63.21l-.12.52.46.33.5-.67-.84-.18zm-18.94 85.12l.16.82-4.59 1.01-359.63 228.32-.16-149.68 359.79-78.64 3.99-2.53.44.7-.17-.82-365.76 79.95.18 154.07 366.2-232.49-.62-1.53.17.82z"/><path d="M1133.43 147.63l-3.99 2.53 4.59-1.01-.16-.82-.44-.7z"/><path d="M1132.28 147.83l.95 1.06.64-.56-.17-.82-1.42.32z"/><path d="M1005.45 2.11h-2.24l129.07 145.72 1.42-.32.17.82-.64.56-.95-1.06-362.22 79.15L844.77 2.11h-1.78l-75.45 227.18 367.92-80.45-.97-1.07L1005.45 2.11zM686.82 236.73l-.71.39-.4-.73-129.55 67.98 14.4-287 115.15 219.02.75-.4.36.74.77-.39L569.16 11.11 554.34 307.2 688 237.07l-.41-.73-.77.39z"/><path d="M685.71 236.39l.4.73.71-.39-.36-.74-.75.4z"/><path d="M651.75 4.79l.06.85.07.85-.77.06 34.15 225.32L571.2 14.94l79.91-8.39-.13-.8.83-.11-.06-.85-83.23 8.75 117.59 223.58 1.57-.53L652.5 4.72l-.75.07z"/><path d="M569 14.21l-.03.72.73.15.15-.85-.85-.02z"/><path d="M511.87 2.11h-8.9l66 12.82.03-.72.85.02-.15.85-.73-.15-14.46 288.71L292.05 2.11h-2.29l266.23 305.82 14.76-294.38-.73-.15-58.15-11.29z"/><path d="M646.19 2.11l3.51 2.88-76.38 8.05 17.22-10.93h-3.17L569.4 13.53l.53 1.57 83.98-8.82-5.08-4.17h-2.64z"/><path d="M587.39 2.11l-16.8 10.68-.98-10.68h-1.73l1.25 13.58 21.39-13.58h-3.13z"/><path d="M567.9 2.11l.99 10.7-21.98-10.7H543l27.84 13.56-1.25-13.56h-1.69z"/><path d="M543.02 2.11l20.63 10.05 6.37 1.24-.17.83-.38.77-5.82-2.84-51.76-10.05h-8.96l66.77 12.97.54-1.61-23.33-11.36h-3.89z"/><path d="M570.02 13.4l-6.37-1.24 5.82 2.84.38-.77.17-.83z"/></g><g><path d="M689.82 234.37a5.41 5.41 0 10.75 7.62 5.41 5.41 0 00-.75-7.62zm134.5 383.74a9.61 9.61 0 101.33 13.52 9.6 9.6 0 00-1.33-13.52z"/><path d="M785.12 361.11a25 25 0 103.47 35.21 25 25 0 00-3.47-35.21z" class="c"/><g class="a"><path d="M619.07 373.06a7.43 7.43 0 101 10.46 7.44 7.44 0 00-1-10.46zm548.42 126.21a5.41 5.41 0 10.75 7.62 5.41 5.41 0 00-.75-7.62zM862.62 653.51a5.41 5.41 0 10.75 7.62 5.41 5.41 0 00-.75-7.62zm120.61 125.06a5.41 5.41 0 10.75 7.62 5.41 5.41 0 00-.75-7.62zm339.89-253.8a5.41 5.41 0 10.75 7.62 5.42 5.42 0 00-.75-7.62z"/><circle cx="1103.36" cy="603.43" r="9.91" transform="rotate(-25.74 1103.225 603.398)"/><path d="M586.12 18.2a5.41 5.41 0 10.75 7.61 5.4 5.4 0 00-.75-7.61zM777.49 220a11.42 11.42 0 101.58 16.08 11.41 11.41 0 00-1.58-16.08zm205.57 341.41a11.42 11.42 0 101.58 16.07 11.42 11.42 0 00-1.58-16.07zM665.48 37.34a11.42 11.42 0 101.58 16.07 11.43 11.43 0 00-1.58-16.07z"/></g><path d="M372.33 186.86a11.42 11.42 0 101.58 16.07 11.42 11.42 0 00-1.58-16.07z" class="c"/><path d="M1193.41 217.87a5.41 5.41 0 10.75 7.61 5.4 5.4 0 00-.75-7.61zm-46.09-3.09a5.41 5.41 0 10.75 7.61 5.41 5.41 0 00-.75-7.61zM699 8.76a6.41 6.41 0 10.89 9 6.41 6.41 0 00-.89-9zm460.33 45.46a8.91 8.91 0 101.24 12.54 8.91 8.91 0 00-1.24-12.54zm-76.68 124.86a5.39 5.39 0 10.74 7.58 5.4 5.4 0 00-.74-7.58z"/><path d="M1072.76 277.84a18.58 18.58 0 102.58 26.15 18.58 18.58 0 00-2.58-26.15z" class="c"/><path d="M670.69 342.66a3.32 3.32 0 10.46 4.67 3.31 3.31 0 00-.46-4.67zm-112.69-40a3.32 3.32 0 10.46 4.67 3.32 3.32 0 00-.46-4.67zm-49.25-54.74a3.31 3.31 0 10.46 4.66 3.3 3.3 0 00-.46-4.66zm101.93 56.29a3.32 3.32 0 10.46 4.67 3.32 3.32 0 00-.46-4.67zM1128.09 543a3.31 3.31 0 10.46 4.66 3.31 3.31 0 00-.46-4.66zm73.48 153.86a8.2 8.2 0 101.13 11.54 8.2 8.2 0 00-1.13-11.54zM713 61.6a3.32 3.32 0 10.46 4.67 3.33 3.33 0 00-.46-4.67zm422.9 84.55a3.6 3.6 0 10.5 5.06 3.59 3.59 0 00-.5-5.06zM999.94 29.44a4.6 4.6 0 10.64 6.47 4.59 4.59 0 00-.64-6.47zM577.52 8.58a2 2 0 00-2.84.28 2 2 0 102.84-.28zm-9.17 3.76a2 2 0 10.27 2.84 2 2 0 00-.27-2.84z"/><path d="M658.94 45.88a2 2 0 10.28 2.83 2 2 0 00-.28-2.83z" class="c"/><g class="a"><path d="M619.89 7.75a2 2 0 10.27 2.83 2 2 0 00-.27-2.83zM653.38 4a2 2 0 10.28 2.84 2 2 0 00-.28-2.84zM423 149.25a2 2 0 10.28 2.83 2 2 0 00-.28-2.83zM571.49 29.68a3.36 3.36 0 10.47 4.73 3.37 3.37 0 00-.47-4.73zm121.82 26.17a2 2 0 10.28 2.83 2 2 0 00-.28-2.83zm46.8 240.33a2 2 0 10.28 2.83 2 2 0 00-.28-2.83zm-167.5 50.12a2 2 0 10.28 2.83 2 2 0 00-.28-2.83zm481.76 162.2a2 2 0 10.28 2.83 2 2 0 00-.28-2.83zM762.28 346.94a2 2 0 10.28 2.83 2 2 0 00-.28-2.83zm8.86-4.45a2 2 0 10.28 2.83 2 2 0 00-.28-2.83zm-16.28-56.35a2 2 0 10.28 2.83 2 2 0 00-.28-2.83zM916 615.13a2 2 0 10.28 2.84 2 2 0 00-.28-2.84zm234.52-19.03a2 2 0 10.28 2.84 2 2 0 00-.28-2.84zm37.99-2.9a3.52 3.52 0 10.48 4.95 3.52 3.52 0 00-.48-4.95zm4.49 65.43a4.79 4.79 0 10.67 6.74 4.79 4.79 0 00-.67-6.74zm-312.78-58.57a2 2 0 10.28 2.83 2 2 0 00-.28-2.83zm192.91 68.71a7.27 7.27 0 101 10.24 7.29 7.29 0 00-1-10.24zm147.73-77.95a5.74 5.74 0 10.79 8.08 5.74 5.74 0 00-.79-8.08z"/><circle cx="978.87" cy="148.29" r="5.29" transform="rotate(-5.62 979.545 148.358)"/><path d="M983.16 296.83a5.29 5.29 0 10.73 7.44 5.29 5.29 0 00-.73-7.44zM566.2 116.54a2 2 0 10.28 2.84 2 2 0 00-.28-2.84z"/></g></g></g><g opacity=".2"><g class="b"><path d="M1602.55 424.45l-.86-1.42-1.11.71-1.16.76-.88-1.44-334.17 121.53 81.02-527.2 253.15 405.67 1.61-.57.43 1.25 1.11-.71L1343.86 9.82l-82.85 538.86 341.54-124.23zm-182.32 411.56l.84-1.02-1.76-1.44-.35 2.23 1.27.23z"/><path d="M1421.13 838.47l.37-2.22-1.27-.24-1.27-.23.35-2.23-44.68-36.68 85.32-195.03-40.64 231.71 1.76 1.44-.84 1.02 1.27.24 42.99-244.92-2.51-.71-90.6 207.01 49.75 40.84z"/><path d="M1465.05 590.17l-1.57-.38-.26 1.31-.35 1.33-1.52-.34L1373 793.92l-108.01-245.41 196.36 43.58.63-1.47 1.24.48.26-1.31-203.08-45.04L1373 800.58l92.05-210.41z"/><path d="M1604.66 420.79l-4.51 1.7.86 2.5-4.56 1.66-133.74 162.95-195.23-43.26 328.97-119.69 3.09-3.77 1.04.86-.43-1.25-342.21 124.48 205.7 45.65 141.02-171.83z"/><path d="M1488.52 852.53l-.18-1.85-1.32.18-1.29.1-.18-1.86-63.81-14.1 41-233.75 22.81 247.85 1.8.4-.33 1.36 1.32-.18L1464.52 591l-2.61-.08-43.18 246.11 69.79 15.5z"/><path d="M1477 1201.69l11.44-351.92-1.09-.27-.33 1.36-.28 1.29-1.05-.23-10.89 335.09-52.96-349.23 63.85 14.14.04-1.14 1.29.08.33-1.36-68.72-15.25 55.71 367.6 2.66-.16z"/><path d="M1476.98 1201.41l-55.67-366.85-1.18.11.1 1.34.11 1.35-1.21.09 54.03 356.49-180.47-343.21 126.44-13.28-.22-1.26 1.32-.18-.1-1.34-131.68 13.84 186.06 353.75 2.47-.85z"/><path d="M1420.34 837.36l-.11-1.35-1.32.18.22 1.26 1.21-.09zm-130.02 13.58l.24-1.33-1.36-.03-.04 1.13 1.16.23z"/><path d="M1423.55 837.03l-50.45-41.41-.83.49 1.46 2.28-.8.51 43.96 36.08-120.84 12.75 76.88-48.83-.77-.63.84-1.02-.73-1.14-82.42 52.38.83 2.48 132.87-13.94z"/><path d="M1373.73 798.39l-.73-1.14-.84 1.02.77.63.8-.51zM1373 797.25l-.73-1.14-.98.63.49 1.04 1.22-.53z"/><path d="M1374.72 797.76l-.5-1.04-2.44 1.06-.49-1.04-79.57 50.59-26.96-292.61 106.53 242.02.98-.63.73 1.14 1.22-.53-110.31-250.62-2.56.69 28.07 305.12 85.3-54.15z"/><path d="M1262.88 547.96l-.19-1.33-1.34.16.12 1.37 1.41-.2zm27.68 301.65l.26-1.32-10.07-1.96 9.2 4.49.61-1.21z"/><path d="M1344.51 14.96l.11-1.35-1.31-.17-.2 1.36 1.4.16zm-81.82 531.67l-.17-1.3-2.18.36 1.24 1.74 1.11-.8z"/><path d="M1344.62 13.61l.16-1.32-3.64-.28 2.55 2.55.93-.95z"/></g><g opacity=".7" class="b"><path d="M1065.55 825.16l2.92-1.82-3.44-.58-.17 1.3.69 1.1z"/><path d="M1064.86 824.06l.17-1.3 3.44.58 160.79-102.14 76.76 141.06-237.55-38.92-2.92 1.82-.69-1.1-.28 1.31 246.41 40.43-80.73-148.37-169.12 107.36 3.44.58.28-1.31z"/><path d="M1309.69 863.38l-.53-.98-1.08.38.44 1.26 1.17-.66z"/><path d="M1308.93 865.28l-.41-1.24-.44-1.26 1.08-.38-77.22-141.88 616.51-43.32-539.29 185.2.53.98-1.17.66.41 1.24 550.01-188.84-.46-2.63-630.88 44.32 80.26 147.53 1.07-.38z"/><path d="M1308.93 865.28l7.04-2.41-7.38-.21-.07 1.38.41 1.24zm-79.08-144.58l-.2-2.69 2.12-.14 174.86-451.72 448.7 407.87-623.56 43.85-.77 1.97-1.25-.49.1 1.35 631.92-44.46-456.18-414.73-177.82 459.28 2.08-.09z"/><path d="M1231 719.84l.77-1.97-2.12.14.1 1.34 1.25.49zm176.43-455.91l.2-2.46-2.13 1.14.6 1.21 1.33.11z"/><path d="M1510.93 2.11l101.41 151.95-204.71 107.41-.2 2.46-1.33-.11-.6-1.21 2.13-1.14 21.5-259.36h-2.67l-21.87 263.98 2.16-1.11 209.5-109.96L1514.22 2.11h-3.29zm-202.46 863.24l9.69.31-9.22-2.89-.42 1.27-.05 1.31zM943.15 202.23l-.77-.63-.81.5.74 1.15.84-1.02zm122.88 621.26l-.62-1.4-1.3.82.75 1.15 1.17-.57z"/><path d="M1409.04 264.62l-2-1.83-.94 1.03.27 1.3 2.67-.5z"/><path d="M1406.1 263.82l.94-1.03 2 1.83 275.2-50.47 171.11 456.28-446.31-405.81-2.67.5-.27-1.3-.89.98 452.43 411.38 2.17-1.55-173.86-463.48-282.75 51.82 2.01 1.83.89-.98z"/><path d="M1406.1 263.82l-.22-1.35 8.76-1.64 199.49-104.67 67.89 55.72-267.38 48.95-7.89 4.15-.65-1.16.27 1.3 281.83-51.68-73.71-60.49-208.99 109.66.87 2.51-.27-1.3z"/><path d="M1406.75 264.98l7.89-4.15-8.76 1.64.22 1.35.65 1.16zM943 204.36l3.41-2.15-4.05-.27-.05 1.31.69 1.11z"/><path d="M1395.4 2.11l-80.66 226.08-368.33-25.98-3.41 2.16-.69-1.12.05-1.31 4.05.27L1261.6 2.11h-4.96L938.13 204.33l4.06.27 374.39 26.44 81.66-228.93h-2.84z"/><path d="M1316.9 230.05l.45-1.25-1.19-.44-.48 1.23 1.22.46z"/><path d="M1426.42 2.11l-21.52 259.82-87.55-33.13-.45 1.25-1.22-.46.48-1.23 1.19.44 80.87-226.69h-2.79l-81.46 228.32 1.19.44 92.14 34.84 21.84-263.6h-2.72z"/><path d="M1315.68 229.59l1.27.23-.24 1.6 87.69 33.17-170.98 441.57 83.29-474.74-1.55-.55.52-1.28-1.34-.21-85.89 489.72 2.55.74L1407.84 263l-93.19-35.24-.31 1.62 1.34.21z"/><path d="M1316.71 231.42l.24-1.6-1.27-.23-.52 1.28 1.55.55z"/></g><g class="a"><path d="M1307 871.45a8.56 8.56 0 10-1.19-12.05 8.56 8.56 0 001.19 12.05zm45.55-869.34h-15.64a13.6 13.6 0 1016.48.56c-.27-.22-.56-.37-.84-.56zM1060.79 831.1a8.56 8.56 0 10-1.18-12.05 8.57 8.57 0 001.18 12.05z"/><circle cx="1408.49" cy="706.65" r="15.68" transform="rotate(-38.04 1408.406 706.645)"/><path d="M1369.36 802.25a5.25 5.25 0 10-.72-7.38 5.26 5.26 0 00.72 7.38zm-116.25-243.43a13 13 0 10-1.8-18.26 13 13 0 001.8 18.26zm80.77 159.43a3.19 3.19 0 10-.45-4.49 3.19 3.19 0 00.45 4.49zm-60.11 4.59a5.56 5.56 0 10-.77-7.84 5.57 5.57 0 00.77 7.84zm-7.09-103.53a7.58 7.58 0 10-1-10.67 7.58 7.58 0 001 10.67zM1304.84 239a11.51 11.51 0 10-1.59-16.19 11.51 11.51 0 001.59 16.19zm-82.25 487.6a9.08 9.08 0 10-1.26-12.78 9.07 9.07 0 001.26 12.78z"/><circle cx="1406.31" cy="265.84" r="13.43" transform="rotate(-72.51 1406.356 265.82)"/><path d="M934.79 212a13.43 13.43 0 10-1.86-18.91 13.43 13.43 0 001.86 18.91z"/></g><g><g class="b"><path d="M839.18 870.47l.43 1.25 1.61-.57-.88-1.44-1.16.76z"/><path d="M839.3 872.45l.92-1.13-2.04-1.67.98-1.18-189.27-194.58 324.07 30.33-134.8 164.25.99 1.08-.97.92 1.04.85 138.99-169.35-336.28-31.46L839.3 872.45z"/><path d="M838.18 869.65l1 .82.97-.92-.99-1.08-.98 1.18zm181.35-411.45l-.84 1.02 1.76 1.44.35-2.23-1.27-.23z"/><path d="M1018.63 455.74l-.37 2.22 1.27.24 1.27.23-.35 2.23 44.69 36.67-85.33 195.04 40.64-231.71-1.76-1.44.84-1.02-1.27-.24-42.99 244.92 2.51.71 90.6-207.01-49.75-40.84z"/><path d="M974.71 704.04l1.57.38.26-1.31.35-1.34 1.52.35 88.35-201.83 108.02 245.4-196.37-43.57-.63 1.47-1.24-.48-.26 1.31 203.08 45.04-112.6-255.83-92.05 210.41z"/><path d="M976.89 701.77l-.35 1.34 1.24.48.63-1.47-1.52-.35zm-137.71 168.7l1.04.85 3.09-3.76-4.56 1.66.43 1.25z"/><path d="M835.1 873.41l4.51-1.69-.86-2.5 4.56-1.66 133.74-162.95 195.23 43.26-328.97 119.69-3.09 3.76-1.04-.85.43 1.25 342.21-124.48-205.7-45.65L835.1 873.41zm-189.47-202.3l.78 1.09 1.29.43 1.33-4.06-3.4 2.54z"/><path d="M646.41 672.2l.78 1.09 2.81-2.13-3.46-.29-.13 1.33z"/><path d="M642.83 673.22l3.43.29.15-1.31.13-1.33 3.46.29 301.64-225.29 23.44 255.77L650 671.16l-2.81 2.13-.78-1.09-.15 1.31 331.76 31.08-24.22-263.7-310.97 232.33z"/><path d="M951.24 441.67l.18 1.86 1.32-.18 1.3-.1.18 1.85 63.8 14.11-41 233.75-22.8-247.86-1.81-.4.33-1.35-1.32.18 23.83 259.68 2.61.07 43.18-246.1-69.8-15.51z"/><path d="M952.74 443.35l-.33 1.35 1.81.4-.18-1.85-1.3.1zM857.28 2.11l-21.53 92.5-.08-92.5h-2.69l.11 104.09 2.65.28L860.03 2.11h-2.75z"/><path d="M834.33 104.87l.1 1.35 1.31.26.42-1.81-1.83.2z"/><path d="M888.72 2.11l72.75 89.34-125.31 13.22-.42 1.81-1.31-.26-.1-1.35 1.83-.2L860.03 2.11h-2.74l-24.57 105.58 1.84-.2 132.13-13.82-74.55-91.56h-3.42z"/><path d="M963.5 91.41l.65 1.16 1-.88-.67-.83-.98.55z"/><path d="M1133.59 2.11L964.48 90.86l.67.83-1 .88-.65-1.16.98-.55-72.3-88.75h-3.47l75.04 92.11.96-.47 174.61-91.64h-5.73zM834.43 106.22l.13 1.27 1.7-.13-.55-1.62-1.28.48z"/><path d="M832.62 105l.58 1.64 1.23-.42 1.28-.48.55 1.62 126.46-13.27-11.09 342.04-115.37-328.77-1.7.13-.13-1.27-1.23.42 118.26 337.19 2.57-.41 11.46-352.36L832.62 105z"/><path d="M953.02 442.06l-.28 1.29 1.29.07.04-1.13-1.05-.23z"/><path d="M962.77 92.52l-11.45 351.92 1.09.26.33-1.35.28-1.29 1.05.23 10.9-335.1 52.96 349.24-63.86-14.14-.04 1.13-1.29-.07-.33 1.35 68.73 15.26-55.72-367.61-2.65.17zM256.11 231.31l.72 1.13 1.33-.17-.19-2.14-1.86 1.18z"/><path d="M832.98 2.11l.11 103.01-569.26 124.42-6.31 4-.69-1.1-.27-1.3 7.27-1.6L622.05 2.11h-4.92l-361.02 229.2.99 2.42 578.69-126.49-.12-105.13h-2.69z"/><path d="M256.83 232.44l.69 1.1 6.31-4-7.27 1.6.27 1.3z"/><path d="M256.83 232.44l.27 1.29 2.23-.5-1.5-1.68-1 .89zM1170.04 2.11l-21.95 437.53L965.9 93.11l-1.19.64-.56-1.18 1.11-.62.64 1.16 173.42-91h-5.68L962.28 92.03l.65 1.16 187.37 356.36 22.39-447.44h-2.65z"/><path d="M964.15 92.57l.56 1.18 1.19-.64-.64-1.16-1.11.62z"/><path d="M962.78 92.8l55.67 366.84 1.18-.1-.2-2.69 1.21-.09-54.03-356.5 180.46 343.22-126.43 13.28.21 1.26-1.32.18.1 1.34 131.69-13.84L965.26 91.95l-2.48.85z"/><path d="M1019.43 456.85l.1 1.35 1.32-.18-.21-1.26-1.21.09zm130.01-13.58l-.24 1.33 1.36.03.04-1.13-1.16-.23z"/><path d="M1016.21 457.18l50.46 41.41.82-.49-1.46-2.28.81-.51-43.97-36.08 120.84-12.75-76.87 48.83.76.63-.84 1.02.73 1.14 82.42-52.38-.83-2.48-132.87 13.94z"/><path d="M1066.03 495.82l.73 1.14.84-1.02-.76-.63-.81.51zM1066.76 496.96l.73 1.14.98-.64-.49-1.03-1.22.53z"/><path d="M1065.05 496.45l.5 1.04 1.21-.53 1.22-.53.49 1.03 79.57-50.58 26.97 292.61-106.54-242.03-.98.64-.73-1.14-1.21.53 110.3 250.62 2.56-.7-28.07-305.11-85.29 54.15z"/><path d="M1176.88 746.25l.19 1.33 1.34-.17-.12-1.36-1.41.2zM1149.2 444.6l-.26 1.31 10.07 1.97-9.2-4.5-.61 1.22z"/><path d="M1177.07 747.58l.17 1.3 2.18-.36-1.24-1.74-1.11.8z"/></g><g opacity=".7" class="b"><path d="M1374.22 469.04l-2.92 1.83 3.43.58.18-1.3-.69-1.11z"/><path d="M1374.91 470.15l-.18 1.3-3.43-.58-160.79 102.14-76.77-141.06 237.56 38.92 2.92-1.83.69 1.11.27-1.31-246.4-40.43 80.72 148.36 169.12-107.35-3.44-.58-.27 1.31z"/><path d="M1130.08 430.83l.53.97 1.07-.38-.44-1.26-1.16.67z"/><path d="M1130.84 428.93l.4 1.23.44 1.26-1.07.38 77.21 141.88-616.51 43.33 539.3-185.21-.53-.97 1.16-.67-.4-1.23-550.02 188.84.46 2.62 630.88-44.31-80.26-147.53-1.06.38z"/><path d="M1130.84 428.93l-7.05 2.41 7.38.21.07-1.39-.4-1.23zm77.93 145.44l-.78 1.97 2.12-.15-.1-1.34-1.24-.48z"/><path d="M1131.29 428.86l-9.69-.31 9.22 2.89.42-1.28.05-1.3zM500.86 233.87l-.19 1.1 1.09.35.44-1.25-1.34-.2z"/><path d="M498.61 2.11l-29.36 126.14 31.66 106.2 2.62-.37-.25-232zm2.22 232v-9.38L472 128.1 500.61 5.33l.2 219.4 2.68 9-1.29.39z"/><path d="M500.83 234.12l1.37-.05 1.3-.39-2.69-8.95.02 9.39z"/><path d="M470.7 126.83l-.02 1.32-.13 1.34-.93-.05 30.55 102.51-327.14-113.63 296.59 11.12-.29-.86 1.35-.43.02-1.32-306.54-11.56-.55 2.62 340.63 118.3-32.61-109.32-.93-.04z"/><path d="M469.33 128.58l.29.86.93.05.13-1.34-1.35.43z"/><path d="M498.61 2.11l-28.65 123.11L374.89 8.48l60.44-6.37h-25.89l-39.76 4.16 101.65 124.85L501.35 2.11h-2.74z"/><path d="M371.21 8.25l.67.83.99-.55-.65-1.16-1.01.88z"/><path d="M371.66 6.19l.56 1.18.65 1.16-.99.55 95.83 117.63-298.58-11.23L371.88 9.08l-.67-.83 1.01-.88-.56-1.18L159 117.79l314.56 11.83L372.62 5.72l-.96.47z"/><path d="M162.92 115.96l-1.99 3.33 3.59-1.39-.43-1.25-1.17-.69zM163.83 117.98h.02z"/><path d="M164.09 116.65l-.24 1.33h.21l.25-2.68-.22 1.35zm416.48 501.27l-2.69 1.48 2.88.93.43-1.27-.62-1.14z"/><path d="M1373.73 470.71l.62 1.41 1.3-.82-.74-1.15-1.18.56zM579.96 619.58l.52 1.42 1.35-.78-.64-1.16-1.23.52zM865.08 2.11L503.53 231.65l-.25-229.54h-2.7l.27 234.36L870 2.11h-4.92zM370.46 6.83l.65 1.16 1.11-.62-.56-1.18-1.2.64z"/></g><g class="a"><path d="M374.14 2.11H369a8.62 8.62 0 105.19 0zm215.64 608.67a15.2 15.2 0 102.1 21.39 15.2 15.2 0 00-2.1-21.39zm-62.02-406.61a39.59 39.59 0 105.48 55.71 39.58 39.58 0 00-5.48-55.71zM265 223.07a11.76 11.76 0 101.63 16.55 11.75 11.75 0 00-1.63-16.55zm867.73 199.69a8.56 8.56 0 101.19 12.05 8.57 8.57 0 00-1.19-12.05zM650.38 666.8a8.56 8.56 0 101.19 12.05 8.57 8.57 0 00-1.19-12.05zm190.83 197.87a8.56 8.56 0 101.19 12.05 8.57 8.57 0 00-1.19-12.05zM1379 463.11a8.56 8.56 0 101.19 12 8.57 8.57 0 00-1.19-12zm-337.77 112.32a15.68 15.68 0 102.17 22.07 15.7 15.7 0 00-2.17-22.07zM487.72 2.11a17.93 17.93 0 005 6.77 18.05 18.05 0 0025.43-2.5 17.55 17.55 0 002.53-4.27zm353.21 518.96a18.07 18.07 0 102.51 25.43 18.07 18.07 0 00-2.51-25.43zM982.85 72.41a29.4 29.4 0 104.08 41.38 29.4 29.4 0 00-4.08-41.38zM346.71 175a5.25 5.25 0 10.72 7.38 5.25 5.25 0 00-.72-7.38zM168.4 111.68a5.24 5.24 0 10.73 7.39 5.25 5.25 0 00-.73-7.39zM90.49 25.07a5.25 5.25 0 10.73 7.38 5.24 5.24 0 00-.73-7.38zm161.27 89.07a5.25 5.25 0 10.72 7.38 5.25 5.25 0 00-.72-7.38zM1070.4 492a5.25 5.25 0 10.73 7.38 5.24 5.24 0 00-.73-7.38zm116.25 243.39a13 13 0 101.8 18.26 13 13 0 00-1.8-18.26zM456.54 101.43a3.19 3.19 0 10.44 4.48 3.19 3.19 0 00-.44-4.48zm-265.02 79.3a3.18 3.18 0 10.44 4.48 3.18 3.18 0 00-.44-4.48zm762.23 256.63a3.19 3.19 0 10.44 4.49 3.18 3.18 0 00-.44-4.49zM491.61 181.74a3.19 3.19 0 10.45 4.49 3.19 3.19 0 00-.45-4.49zm14.03-7.04a3.19 3.19 0 10.44 4.49 3.2 3.2 0 00-.44-4.49zm-25.76-89.16a3.19 3.19 0 10.44 4.49 3.2 3.2 0 00-.44-4.49zM734.9 606.08a3.18 3.18 0 10.44 4.48 3.18 3.18 0 00-.44-4.48zM1105.89 576a3.19 3.19 0 10.44 4.49 3.2 3.2 0 00-.44-4.49zm60.11-4.63a5.56 5.56 0 10.77 7.83 5.57 5.57 0 00-.77-7.83zm7.09 103.53a7.58 7.58 0 101.05 10.67 7.59 7.59 0 00-1.05-10.67zm-494.88-92.68a3.19 3.19 0 10.45 4.49 3.19 3.19 0 00-.45-4.49zm305.23 108.72a11.51 11.51 0 101.59 16.2 11.51 11.51 0 00-1.59-16.2z"/><circle cx="1211.41" cy="574.63" r="9.08" transform="rotate(-33.07 1211.396 574.622)"/><circle cx="835.79" cy="108.92" r="8.36" transform="rotate(-41.6 835.821 108.906)"/></g></g></g></g><path transform="matrix(-.55 .84 -.84 -.55 1979.69 -242.08)" d="M339.79-441.91H1771v1713.84H339.79z" fill="url(#A)"/><g opacity=".3"><path d="M1379.21 498.26a110.23 110.23 0 01-10 30 22.87 22.87 0 00-2.49 9.67c-6.88 6.79-11.77 10.93-13.17 12.12-37.72 31.59-67.3 48.06-113.11 62.9-16.87 5.47-52.22 14.49-97.79 13.47l-69.91 37.88c84.94 18.52 154.49 1.41 181.92-7.47 51.46-16.64 86.26-36 128.45-71.38 8.53-7.11 53-45.81 83.65-106.61a378.83 378.83 0 0016.15-36.71z" fill="url(#B)"/><path d="M1134.14 4.9l7.62-.21c4.62-.11 9.25-.08 13.89 0a165.2 165.2 0 00-23.65 7.52L1194.4 46c48.87-1.54 98.2 20.23 131.29 55.3-7.6.75-15.48 1.82-23.45 3.09l105.67 57.29c-.23-1.19-.35-2.39-.61-3.56a50.1 50.1 0 0111.22 9.29l70.28 38.05c-.87-2.67-1.58-5.28-2.46-8a26.09 26.09 0 00-2.1-4.39c-.7-2.23-1.37-4.48-2.18-6.72C1461.85 128.64 1423 78 1373.76 39.11a21.89 21.89 0 00-4.69-5c-75.65-58.62-151.68-71.88-190.29-74.59-2.06-.16-4-.18-6-.31a325.22 325.22 0 00-69.66 1.9c-1.41.22-2.79.5-4.16.67-9.93 1.42-18.57 3-25.54 4.63-6.32 1.47-12.21 2.95-17.78 4.48l65 35.25c4.54-.47 9.05-1.01 13.5-1.24z" fill="url(#C)"/><path d="M860.44 431.51c-10.09-24.87-17.35-55.83-18.75-67.83-3.31-28.7-3.31-28.7-3.59-57.07a207.61 207.61 0 012.49-31.44c3.61-22.15 7.81-46.9 22.1-80.48v-92.58a333 333 0 00-31.15 50.07c-26 51.58-32 88.54-36.48 115.58a251.1 251.1 0 00-3.1 39.37c.31 30.46.31 31 3.95 61.86 2.13 18.64 12.41 60.24 26 89.82 10.62 23.12 20.41 41 32.34 58.37a23.61 23.61 0 003.56 5c1.55 2.17 3.23 4.3 4.84 6.44V426c-.65 1.84-1.55 3.68-2.21 5.51z" fill="url(#D)"/><path d="M1391 263.93a139.4 139.4 0 01-15.34 20.23c17.34 32 30.75 64.11 39.71 95.31 3.55-4.74 7.07-9.51 10.17-14.59 28.12-46.14 33-102.56 14.22-159.29a23.69 23.69 0 01-3.17-5.82c-1.67-4.77-3.77-9.43-5.77-14.09a23.36 23.36 0 01-5.13-7.33 40.73 40.73 0 00-7.14-10.91l-10.61-5.73c7.17 36.23 1.51 71.88-16.94 102.22z" fill="url(#E)"/><path d="M1111 7a22.41 22.41 0 01-3.26.1 244 244 0 00-44.06 10.55 301.87 301.87 0 0136.56 11.25A160.31 160.31 0 011132 12.21l-11.29-6.1L1111 7z" fill="url(#F)"/><path d="M1178.37 47.31a136.6 136.6 0 00-25.49 6.07c30.06 16.88 60.49 38.75 90.19 65.1a434.81 434.81 0 0159.17-14.06L1194.4 46a151.39 151.39 0 00-16.03 1.31z" fill="url(#G)"/><path d="M1283 501.5c-122.9 17.14-253.26-40.49-329.12-136-28.5 34.52-48.33 68.89-55.49 99.51-2.8 12-3.35 22.61-1.89 31.84 4.95 6.88 10.42 13.8 16.73 21.34 17.55 21 67.14 72.27 149 95.95a310.43 310.43 0 0080.43 12.24l236.58-128.16a160 160 0 003-29.79c-29.13 16.66-62.56 27.94-99.24 33.07z" fill="url(#H)"/><path d="M960.16 290.1a730.73 730.73 0 0195-77.92c-2.28-5-4.42-10.11-6.25-15.37a.12.12 0 000-.1c-15.41-44.06-11.58-88.61 10.85-125.38 1.32-2.21 2.88-4.19 4.39-6.27-25.64-7.48-49.48-9.93-70.26-6.94a178.32 178.32 0 00-33.32 39.61c-17 27.79-25.53 59.41-25.53 92.52a214.09 214.09 0 0012.49 70.68 249.24 249.24 0 0012.63 29.17z" fill="url(#I)"/><path d="M1092.44 181.56l2.12 5.14a737.78 737.78 0 0198.61-50.1c-28.24-22.78-56.78-40.9-84.35-54.13a91.45 91.45 0 00-9.71 12.9c-15.08 24.77-17.46 55.35-6.67 86.13z" fill="url(#J)"/><path d="M1272.35 287.93a122.9 122.9 0 0043-14A579.11 579.11 0 001231.8 171c-5.51 2-11 4.12-16.65 6.36a669.71 669.71 0 00-96.7 49.13c36.23 43.51 96.69 69.44 153.9 61.44z" fill="url(#K)"/><path d="M966.22 8.6C990.68-5 1014-17.81 1055.66-29.14l-193-104.47v235.72C907.13 42.74 959 12.62 966.22 8.6z" fill="url(#L)"/><path d="M1351.58 239.89c15.12-24.81 17.49-55.41 6.71-86.2-.91-2.63-2.06-5.2-3.17-7.79-21.25-.37-46.14 2.87-73.48 9.73a625.9 625.9 0 0168.6 86.25c.4-.7.94-1.32 1.34-1.99z" fill="url(#M)"/><path d="M1276.57 455.82c38.51-5.39 72.43-18.82 100.08-38.82-6.87-32.79-19.89-67.89-38.24-103.19a170.26 170.26 0 01-59.66 19.8c-74.19 10.33-152.74-24.4-198.81-81.92a691.52 691.52 0 00-94.63 79.18c64.79 86.99 181.36 140.29 291.26 124.95z" fill="url(#N)"/><path d="M926.82 325.62A292.7 292.7 0 01904 276.19c-16.86-48.05-19.51-96.34-8.49-140.88A298.06 298.06 0 00872.72 173c-3.9 7.69-7.08 14.82-10 21.72V426c13-32.67 35.1-66.83 64.1-100.38z" fill="url(#O)"/><path d="M1441.75 420.31a224.78 224.78 0 01-15 15.4q.93 8.64 1.38 17.06a338.31 338.31 0 0013.62-32.46z" fill="url(#P)"/><path d="M877.81 547.85c-5.57-6.62-10.47-12.9-15.12-19.21v249.41l210-113.75c-7.66-1.7-15.42-3.56-23.32-5.82-94.09-27.19-151.32-86.43-171.56-110.63z" fill="url(#Q)"/></g><path transform="rotate(123.12 1231.685 228.888)" d="M829.2-628.09h804.93v1713.84H829.2z" fill="url(#R)"/></g></svg>