<?xml version="1.0" encoding="UTF-8"?>
<svg width="36px" height="36px" viewBox="0 0 36 36" version="1.1" xmlns="http://www.w3.org/2000/svg" xmlns:xlink="http://www.w3.org/1999/xlink">
    <!-- Generator: sketchtool 52.6 (67491) - http://www.bohemiancoding.com/sketch -->
    <title>1614F39E-1DA3-474C-95AF-E093CE2DC675</title>
    <desc>Created with sketchtool.</desc>
    <defs>
        <linearGradient x1="50%" y1="0%" x2="50%" y2="97.7917269%" id="linearGradient-1">
            <stop stop-color="#E83C1F" offset="0%"></stop>
            <stop stop-color="#B12211" offset="100%"></stop>
        </linearGradient>
    </defs>
    <g id="Web-Pages" stroke="none" stroke-width="1" fill="none" fill-rule="evenodd">
        <g id="All-Products-(Alt)" transform="translate(-702.000000, -2760.000000)" fill="url(#linearGradient-1)" fill-rule="nonzero">
            <g id="Section-5-Communicate" transform="translate(96.000000, 2760.000000)">
                <g id="ico/ico-su-red-square-32px" transform="translate(606.000000, 0.000000)">
                    <path d="M0,0 L36,0 L36,36 L0,36 L0,0 Z M32.5714286,10.2857143 L32.5714286,3.42857143 L3.42857143,3.42857143 L3.42857143,10.2857143 L25.7142857,10.2857143 L25.7142857,32.5714286 L32.5714286,32.5714286 L32.5714286,10.2857143 Z M15.4285714,13.7142857 L3.42857143,13.7142857 L3.42857143,20.5714286 L15.4285714,20.5714286 L15.4285714,32.5714286 L22.2857143,32.5714286 L22.2857143,13.7142857 L15.4285714,13.7142857 Z M3.42857143,24 L3.42857143,32.5714286 L12,32.5714286 L12,24 L3.42857143,24 Z" id="Combined-Shape"></path>
                </g>
            </g>
        </g>
    </g>
</svg>